<?xml version="1.0" standalone="no"?>
<!DOCTYPE svg PUBLIC "-//W3C//DTD SVG 20010904//EN"
 "http://www.w3.org/TR/2001/REC-SVG-20010904/DTD/svg10.dtd">
<svg version="1.0" xmlns="http://www.w3.org/2000/svg"
 width="494.000000pt" height="505.000000pt" viewBox="0 0 494.000000 505.000000"
 preserveAspectRatio="xMidYMid meet">

<g transform="translate(0.000000,505.000000) scale(0.100000,-0.100000)"
fill="#000000" stroke="none">
<path d="M735 3238 c-248 -263 -478 -638 -540 -883 -35 -137 -20 -296 37 -409
34 -66 115 -143 189 -180 109 -55 196 -70 363 -63 234 9 416 61 781 222 116
51 498 219 850 375 1598 706 2272 1003 2294 1011 89 34 -86 -11 -859 -222
-1904 -521 -2384 -650 -2478 -670 -61 -13 -136 -21 -202 -22 -180 -1 -301 43
-394 144 -77 83 -101 160 -93 303 6 120 36 230 102 377 25 56 44 103 42 106
-3 2 -44 -38 -92 -89z"/>
</g>
</svg>
